{"title":"Conspiracy 2001 iNTERNAL DVDRip XViD-SPRiNTER","uid":8740880,"size":747861123,"categoryP":"video","categoryS":"movies","magnet":"?xt=urn:btih:9da51ed509394829aec5575395c780be71fbfcc5&amp;dn=Conspiracy+2001+iNTERNAL+DVDRip+XViD-SPRiNTER&amp;tr=udp%3A%2F%2Ftracker.openbittorrent.com%3A80&amp;tr=udp%3A%2F%2Fopen.demonii.com%3A1337&amp;tr=udp%3A%2F%2Ftracker.coppersurfer.tk%3A6969&amp;tr=udp%3A%2F%2Fexodus.desync.com%3A6969","seeders":3,"leechers":1,"uploader":".BONE.","files":-1,"time":1374784705,"description":"[img]http://www.ultraimg.com/images/TlM08.jpg[/img]\n\nA dramatic recreation of the Wannsee Conference where the Nazi Final Solution phase of the Holocaust was devised. \n\nFormat                           : AVI\nFormat/Info                      : Audio Video Interleave\nFile size                        : 702 MiB\nDuration                         : 1h 35mn\nOverall bit rate                 : 1 024 Kbps\nWriting application              : Nandub v1.0rc2\nWriting library                  : Nandub build 1852/release\n\nVideo\nID                               : 0\nFormat                           : MPEG-4 Visual\nFormat profile                   : AdvancedSimple@L5\nFormat settings, BVOP            : No\nFormat settings, QPel            : No\nFormat settings, GMC             : No warppoints\nFormat settings, Matrix          : Default (H.263)\nCodec ID                         : XVID\nCodec ID/Hint                    : XviD\nDuration                         : 1h 35mn\nBit rate                         : 870 Kbps\nWidth                            : 592 pixels\nHeight                           : 320 pixels\nDisplay aspect ratio             : 1.850\nFrame rate                       : 23.976 fps\nResolution                       : 24 bits\nColorimetry                      : 4:2:0\nScan type                        : Progressive\nBits/(Pixel*Frame)               : 0.192\nStream size                      : 596 MiB (85%)\nWriting library                  : XviD 1.2.1 (UTC 2008-12-04)\n\nAudio\nID                               : 1\nFormat                           : MPEG Audio\nFormat version                   : Version 1\nFormat profile                   : Layer 3\nCodec ID                         : 55\nCodec ID/Hint                    : MP3\nDuration                         : 1h 35mn\nBit rate mode                    : Variable\nBit rate                         : 142 Kbps\nMinimum bit rate                 : 32.0 Kbps\nChannel(s)                       : 2 channels\nSampling rate                    : 48.0 KHz\nResolution                       : 16 bits\nStream size                      : 97.1 MiB (14%)\nAlignment                        : Aligned on interleaves\nInterleave, duration             : 24 ms (0.58 video frame)\nInterleave, preload duration     : 124 ms\nWriting library                  : LAME3.98r\nEncoding settings                : -m s -V 5 -q 0 -lowpass 16.5 --vbr-new -b 32","torrent":{"xt":"urn:btih:9da51ed509394829aec5575395c780be71fbfcc5","amp;dn":"Conspiracy+2001+iNTERNAL+DVDRip+XViD-SPRiNTER","amp;tr":["udp%3A%2F%2Ftracker.openbittorrent.com%3A80","udp%3A%2F%2Fopen.demonii.com%3A1337","udp%3A%2F%2Ftracker.coppersurfer.tk%3A6969","udp%3A%2F%2Fexodus.desync.com%3A6969"],"infoHash":"9da51ed509394829aec5575395c780be71fbfcc5","infoHashBuffer":{"type":"Buffer","data":[157,165,30,213,9,57,72,41,174,197,87,83,149,199,128,190,113,251,252,197]},"announce":[],"urlList":[]}}